# xmcd
#
# Track frame offsets: 
#        150
#        24967
#        40005
#        48630
#        68782
#        82357
#        99595
#        119875
#        146015
#        159545
#        176645
#        189517
#        205145
#        224067
#        244885
#        258100
#
# Disc length: 3712 seconds
#
# Revision: 6
# Processed by: cddbd v1.5.2PL0 Copyright (c) Steve Scherf et al.
# Submitted via: ExactAudioCopy v0.90b4
#
DISCID=f30e7e10
DTITLE=Big Mama Thornton - Ball N' Chain
DYEAR=1968
DGENRE=Cabaret
TTITLE0=Sweet Little Angel
TTITLE1=Unlucky Girl
TTITLE2=Swing It On Home
TTITLE3=Little Red Rooster
TTITLE4=Hound Dog
TTITLE5=Your Love Is Where It Ought To Be
TTITLE6=School Boy
TTITLE7=My Heavy Load
TTITLE8=I'm Feeling Alright
TTITLE9=Sometimes I Have A Heartache
TTITLE10=Black Rat
TTITLE11=Life Goes On
TTITLE12=Bumble Bee
TTITLE13=Gimme A Penny
TTITLE14=Wade In The Water
TTITLE15=Ball N' Chain
EXTD=
EXTT0=
EXTT1=
EXTT2=
EXTT3=
EXTT4=
EXTT5=
EXTT6=
EXTT7=
EXTT8=
EXTT9=
EXTT10=
EXTT11=
EXTT12=
EXTT13=
EXTT14=
EXTT15=
PLAYORDER=
